<?xml version="1.0" standalone="no"?>
<!DOCTYPE svg PUBLIC "-//W3C//DTD SVG 20010904//EN"
 "http://www.w3.org/TR/2001/REC-SVG-20010904/DTD/svg10.dtd">
<svg version="1.0" xmlns="http://www.w3.org/2000/svg"
 width="528.000000pt" height="528.000000pt" viewBox="0 0 528.000000 528.000000"
 preserveAspectRatio="xMidYMid meet">
<metadata>
Created by potrace 1.14, written by Peter Selinger 2001-2017
</metadata>
<g transform="translate(0.000000,528.000000) scale(0.100000,-0.100000)"
fill="#000000" stroke="none">
<path d="M2265 4455 c-679 -126 -1274 -539 -1549 -1074 -74 -146 -115 -257
-148 -402 -31 -138 -33 -398 -4 -529 94 -433 375 -773 810 -981 184 -87 428
-156 616 -174 36 -3 75 -8 88 -11 12 -2 22 -1 22 4 0 5 -36 16 -81 26 -294 63
-603 225 -811 424 -127 123 -214 238 -283 377 -104 211 -139 362 -139 600 1
236 41 408 149 632 242 505 751 915 1350 1088 50 14 95 27 100 29 22 9 -54 3
-120 -9z"/>
<path d="M2795 4388 c-304 -30 -651 -144 -917 -301 -463 -273 -795 -714 -873
-1161 -16 -93 -13 -122 6 -66 24 67 108 228 166 315 237 359 622 655 1068 821
515 190 1107 196 1583 14 115 -45 259 -120 363 -191 102 -70 246 -202 309
-284 23 -30 45 -53 48 -51 8 9 -74 171 -129 253 -70 105 -262 295 -369 365
-354 231 -796 332 -1255 286z"/>
<path d="M2770 3373 l-162 -408 -329 -290 c-181 -159 -329 -293 -329 -297 0
-5 4 -8 8 -8 23 0 250 44 342 67 207 50 745 194 752 202 4 4 35 182 69 396 33
215 62 391 63 392 1 1 92 -4 201 -12 775 -58 1150 -84 1153 -80 6 6 18 2 -313
94 -159 44 -511 141 -780 215 -270 75 -495 136 -502 136 -6 0 -84 -183 -173
-407z"/>
<path d="M3323 3200 c-51 -23 -112 -83 -138 -135 -12 -24 -21 -69 -23 -113 -4
-63 -1 -79 22 -127 47 -96 152 -164 255 -166 21 0 -37 -18 -144 -44 -180 -43
-307 -77 -675 -175 -649 -173 -870 -190 -933 -70 -27 51 -19 168 16 235 85
168 353 360 670 480 120 45 -11 22 -249 -45 -689 -194 -1073 -525 -979 -845
57 -199 277 -349 585 -400 137 -23 388 -16 540 15 172 35 368 106 535 192 648
337 944 457 1355 547 367 81 736 79 985 -4 34 -11 -33 42 -102 81 -158 90
-337 132 -598 141 -255 8 -524 -18 -833 -82 -130 -27 -159 -31 -94 -10 116 36
202 151 202 270 0 98 -72 208 -165 251 -64 30 -169 32 -232 4z"/>
<path d="M443 3178 c-53 -89 -74 -131 -117 -231 -51 -120 -99 -290 -117 -415
-15 -108 -6 -392 16 -489 151 -679 751 -1162 1565 -1263 127 -15 460 -13 597
5 687 91 1300 434 1682 942 69 93 175 266 193 317 8 21 8 21 -10 -1 -9 -11
-45 -59 -79 -106 -356 -482 -982 -831 -1658 -924 -146 -20 -478 -23 -615 -5
-588 78 -1071 353 -1341 765 -157 239 -232 493 -231 787 1 203 37 389 112 569
33 80 34 102 3 49z"/>
<path d="M3835 2336 c-286 -94 -535 -205 -920 -410 -239 -127 -406 -189 -638
-237 -128 -26 -387 -36 -506 -20 -46 6 -86 9 -88 7 -2 -2 33 -29 79 -59 233
-154 464 -227 719 -227 266 0 486 72 780 255 332 206 601 460 745 703 33 55
31 55 -171 -12z"/>
</g>
</svg>
